<mxfile host="app.diagrams.net" modified="2023-06-21T15:44:50.981Z" agent="Mozilla/5.0 (Linux; Android 10; ONEPLUS A6000) AppleWebKit/537.36 (KHTML, like Gecko) Chrome/110.0.0.0 Mobile Safari/537.36 EdgA/110.0.1587.66" version="21.5.0" etag="57GZZTK5L8IiWw4Qfe83" type="github">
  <diagram name="第 1 页" id="9P-dc109dYnkI-f96ubz">
    <mxGraphModel>
      <root>
        <mxCell id="0" />
        <mxCell id="1" parent="0" />
      </root>
    </mxGraphModel>
  </diagram>
</mxfile>
